# xmcd
#
# Track frame offsets: 
#        150
#        12346
#        31883
#        49634
#        74316
#        94320
#        115363
#        138202
#        165282
#        196803
#        212722
#        238194
#
# Disc length: 3545 seconds
#
# Revision: 4
# Processed by: cddbd v1.5.2PL0 Copyright (c) Steve Scherf et al.
# Submitted via: ExactAudioCopyFreeDBPlugin 1.0
#
DISCID=9e0dd70c
DTITLE=Beth Hart - Live At The Royal Albert Hall [CD1)
DYEAR=2018
DGENRE=Blues
TTITLE0=As Long As I Have A Song
TTITLE1=For My Friends
TTITLE2=Lifts You Up
TTITLE3=Close To My Fire
TTITLE4=Bang Bang Boom Boom
TTITLE5=Good As It Gets
TTITLE6=Spirit Of God
TTITLE7=Baddest Blues
TTITLE8=Sister Heroine
TTITLE9=Baby Shot Me Down
TTITLE10=Waterfalls
TTITLE11=Your Heart Is As Black As Night
EXTD=YEAR: 2018
EXTT0=
EXTT1=
EXTT2=
EXTT3=
EXTT4=
EXTT5=
EXTT6=
EXTT7=
EXTT8=
EXTT9=
EXTT10=
EXTT11=
PLAYORDER=
